<svg xmlns="http://www.w3.org/2000/svg" width="17" height="17" viewBox="0 0 17 17"><defs><style>.a{fill:#fff;}</style></defs><g transform="translate(-2.25 -2.25)"><path class="a" d="M21.143,10.214V21.143H10.214V10.214H21.143m0-1.214H10.214A1.214,1.214,0,0,0,9,10.214V21.143a1.214,1.214,0,0,0,1.214,1.214H21.143a1.214,1.214,0,0,0,1.214-1.214V10.214A1.214,1.214,0,0,0,21.143,9Z" transform="translate(-3.107 -3.107)"/><path class="a" d="M3.464,11.964H2.25v-8.5A1.214,1.214,0,0,1,3.464,2.25h8.5V3.464h-8.5Z" transform="translate(0 0)"/></g></svg>